<?xml version="1.0" encoding="utf-8"?>
<!-- Generator: Adobe Illustrator 26.2.1, SVG Export Plug-In . SVG Version: 6.00 Build 0)  -->
<svg version="1.1" id="Layer_1" xmlns="http://www.w3.org/2000/svg" xmlns:xlink="http://www.w3.org/1999/xlink" x="0px" y="0px"
	 viewBox="0 0 581 512" style="enable-background:new 0 0 581 512;" xml:space="preserve">
<style type="text/css">
	.st0{fill:#4368B7;}
</style>
<path class="st0" d="M581,226.6C581,119.1,450.9,32,290.5,32S0,119.1,0,226.6C0,322.4,103.3,402,239.4,418.1V480h99.1v-61.5
	c24.3-2.7,47.6-7.4,69.4-13.9L448,480h112l-67.4-113.7C547.1,330.9,581,281.4,581,226.6L581,226.6z M114.2,241.1
	c0-73.5,98.9-133,220.8-133s211.9,40.7,211.9,133c0,50.1-26.5,85-70.3,106.4c-2.4-1.6-4.7-2.9-6.4-3.7
	c-10.2-5.2-27.8-10.5-27.8-10.5s86.6-6.4,86.6-92.7s-90.6-87.9-90.6-87.9h-199V361C165.3,339.5,114.2,293.9,114.2,241.1L114.2,241.1
	z M339.3,279.4v-55.6c57.8,0,87.8-6.8,87.8,27.3C427.1,287.6,388.9,279.4,339.3,279.4L339.3,279.4z M338.4,351.9H365
	c10.8,0,18.9,11.7,24,19.2c-16.1,1.9-33,2.8-50.6,2.9L338.4,351.9L338.4,351.9z"/>
</svg>
